# xmcd
#
# Track frame offsets:
#	150
#	19905
#	43557
#	54502
#	64710
#	82447
#	101385
#	114772
#	136565
#	147452
#	166460
#	188162
#	205305
#	220807
#
# Disc length: 3222 seconds
#
# Revision: 1
# Processed by: cddbd v1.5.1PL0 Copyright (c) Steve Scherf et al.
# Submitted via: CDex 1.50Beta5
#
DISCID=c50c940e
DTITLE=寺の鐘 - 納涼/日本の梵鐘
DYEAR=1900
DGENRE=Other
TTITLE0=本門寺
TTITLE1=増上寺
TTITLE2=寛永寺
TTITLE3=浅草寺
TTITLE4=題経寺(柴又帝釈天)
TTITLE5=麻布長谷寺
TTITLE6=安楽寺
TTITLE7=総持寺
TTITLE8=建長寺
TTITLE9=浄智寺
TTITLE10=寿福寺
TTITLE11=方広寺
TTITLE12=妙心寺
TTITLE13=知恩院
EXTD=
EXTT0=
EXTT1=
EXTT2=
EXTT3=
EXTT4=
EXTT5=
EXTT6=
EXTT7=
EXTT8=
EXTT9=
EXTT10=
EXTT11=
EXTT12=
EXTT13=
PLAYORDER=
